<?xml version="1.0" standalone="no"?><!DOCTYPE svg PUBLIC "-//W3C//DTD SVG 1.1//EN" "http://www.w3.org/Graphics/SVG/1.1/DTD/svg11.dtd"><svg t="1601206818064" class="icon" viewBox="0 0 1024 1024" version="1.1" xmlns="http://www.w3.org/2000/svg" p-id="3248" width="16" height="16" xmlns:xlink="http://www.w3.org/1999/xlink"><defs><style type="text/css"></style></defs><path d="M512 128c211.74 0 384 172.26 384 384S723.74 896 512 896 128 723.74 128 512s172.26-384 384-384m0-64C264.58 64 64 264.58 64 512s200.58 448 448 448 448-200.58 448-448S759.42 64 512 64z" p-id="3249" fill="#2c2c2c"></path><path d="M448 352l213.33 160L448 672V352m-31.87-96.06c-16.58 0-32.13 13.1-32.13 32.06v448c0 18.95 15.55 32.06 32.13 32.06 6.49 0 13.14-2.01 19.07-6.46l298.67-224c17.07-12.8 17.07-38.4 0-51.2l-298.67-224c-5.93-4.45-12.58-6.46-19.07-6.46z" p-id="3250" fill="#2c2c2c"></path></svg>